<mxfile host="app.diagrams.net" modified="2023-11-23T21:12:13.001Z" agent="Mozilla/5.0 (Windows NT 10.0; Win64; x64) AppleWebKit/537.36 (KHTML, like Gecko) Chrome/119.0.0.0 Safari/537.36" etag="9YRBNqrtLvOzDSbyhhN1" version="22.1.3" type="github">
  <diagram name="Page-1" id="e7e014a7-5840-1c2e-5031-d8a46d1fe8dd">
    <mxGraphModel dx="787" dy="569" grid="1" gridSize="10" guides="1" tooltips="1" connect="1" arrows="1" fold="1" page="1" pageScale="1" pageWidth="1169" pageHeight="826" background="none" math="0" shadow="0">
      <root>
        <mxCell id="0" />
        <mxCell id="1" parent="0" />
        <mxCell id="2" value="SYSTEM" style="swimlane;whiteSpace=wrap" parent="1" vertex="1">
          <mxGeometry x="410" y="40" width="400" height="740" as="geometry" />
        </mxCell>
        <mxCell id="5" value="" style="ellipse;shape=startState;fillColor=#000000;strokeColor=#ff0000;" parent="2" vertex="1">
          <mxGeometry x="100" y="40" width="30" height="30" as="geometry" />
        </mxCell>
        <mxCell id="6" value="" style="edgeStyle=elbowEdgeStyle;elbow=horizontal;verticalAlign=bottom;endArrow=open;endSize=8;strokeColor=#FF0000;endFill=1;rounded=0" parent="2" source="5" target="7" edge="1">
          <mxGeometry x="100" y="40" as="geometry">
            <mxPoint x="115" y="110" as="targetPoint" />
          </mxGeometry>
        </mxCell>
        <mxCell id="7" value="Enter username" style="" parent="2" vertex="1">
          <mxGeometry x="60" y="110" width="110" height="50" as="geometry" />
        </mxCell>
        <mxCell id="8" value="Enter password" style="" parent="2" vertex="1">
          <mxGeometry x="60" y="220" width="110" height="50" as="geometry" />
        </mxCell>
        <mxCell id="9" value="" style="endArrow=open;strokeColor=#FF0000;endFill=1;rounded=0" parent="2" source="7" target="8" edge="1">
          <mxGeometry relative="1" as="geometry" />
        </mxCell>
        <mxCell id="10" value="Assign the user&#xa; the appropriate role" style="" parent="2" vertex="1">
          <mxGeometry x="60" y="520" width="110" height="50" as="geometry" />
        </mxCell>
        <mxCell id="11" value="" style="endArrow=open;strokeColor=#FF0000;endFill=1;rounded=0" parent="2" source="jbMA10MFHVVsldIOurT2-41" edge="1">
          <mxGeometry relative="1" as="geometry">
            <mxPoint x="115.5" y="342" as="targetPoint" />
          </mxGeometry>
        </mxCell>
        <mxCell id="12" value="" style="edgeStyle=elbowEdgeStyle;elbow=horizontal;strokeColor=#FF0000;endArrow=open;endFill=1;rounded=0;exitX=0;exitY=0.5;exitDx=0;exitDy=0;" parent="2" source="jbMA10MFHVVsldIOurT2-41" target="7" edge="1">
          <mxGeometry width="100" height="100" relative="1" as="geometry">
            <mxPoint x="160" y="290" as="sourcePoint" />
            <mxPoint x="260" y="190" as="targetPoint" />
            <Array as="points">
              <mxPoint x="30" y="250" />
            </Array>
          </mxGeometry>
        </mxCell>
        <mxCell id="jbMA10MFHVVsldIOurT2-46" value="INCORRECT&lt;br&gt;CREDENCIALS" style="edgeLabel;html=1;align=center;verticalAlign=middle;resizable=0;points=[];" vertex="1" connectable="0" parent="12">
          <mxGeometry x="-0.423" y="-1" relative="1" as="geometry">
            <mxPoint as="offset" />
          </mxGeometry>
        </mxCell>
        <mxCell id="jbMA10MFHVVsldIOurT2-43" value="" style="endArrow=open;strokeColor=#FF0000;endFill=1;rounded=0" edge="1" parent="2" source="8" target="jbMA10MFHVVsldIOurT2-41">
          <mxGeometry relative="1" as="geometry">
            <mxPoint x="279.5" y="398" as="sourcePoint" />
            <mxPoint x="280" y="470" as="targetPoint" />
          </mxGeometry>
        </mxCell>
        <mxCell id="jbMA10MFHVVsldIOurT2-41" value="Check &#xa;user credentials" style="rhombus;fillColor=#ffffc0;strokeColor=#ff0000;" vertex="1" parent="2">
          <mxGeometry x="47.75" y="342" width="134.5" height="78" as="geometry" />
        </mxCell>
        <mxCell id="jbMA10MFHVVsldIOurT2-44" value="" style="endArrow=open;strokeColor=#FF0000;endFill=1;rounded=0;entryX=0.5;entryY=0;entryDx=0;entryDy=0;" edge="1" parent="2" target="10">
          <mxGeometry relative="1" as="geometry">
            <mxPoint x="114.5" y="420" as="sourcePoint" />
            <mxPoint x="114.5" y="492" as="targetPoint" />
          </mxGeometry>
        </mxCell>
        <mxCell id="jbMA10MFHVVsldIOurT2-47" value="Text" style="edgeLabel;html=1;align=center;verticalAlign=middle;resizable=0;points=[];" vertex="1" connectable="0" parent="jbMA10MFHVVsldIOurT2-44">
          <mxGeometry x="-0.064" y="2" relative="1" as="geometry">
            <mxPoint as="offset" />
          </mxGeometry>
        </mxCell>
        <mxCell id="jbMA10MFHVVsldIOurT2-48" value="CORRECT&lt;br&gt;CREDENCIALS" style="edgeLabel;html=1;align=center;verticalAlign=middle;resizable=0;points=[];" vertex="1" connectable="0" parent="jbMA10MFHVVsldIOurT2-44">
          <mxGeometry x="-0.1282" y="3" relative="1" as="geometry">
            <mxPoint as="offset" />
          </mxGeometry>
        </mxCell>
        <mxCell id="jbMA10MFHVVsldIOurT2-50" value="" style="endArrow=open;strokeColor=#FF0000;endFill=1;rounded=0;" edge="1" parent="2" source="10">
          <mxGeometry relative="1" as="geometry">
            <mxPoint x="60" y="570" as="sourcePoint" />
            <mxPoint x="15.5" y="612" as="targetPoint" />
          </mxGeometry>
        </mxCell>
        <mxCell id="jbMA10MFHVVsldIOurT2-49" value="" style="endArrow=open;strokeColor=#FF0000;endFill=1;rounded=0" edge="1" parent="2" source="10">
          <mxGeometry relative="1" as="geometry">
            <mxPoint x="114" y="570" as="sourcePoint" />
            <mxPoint x="115.5" y="622" as="targetPoint" />
          </mxGeometry>
        </mxCell>
        <mxCell id="jbMA10MFHVVsldIOurT2-52" value="Assign the user&#xa; the appropriate role" style="" vertex="1" parent="2">
          <mxGeometry y="630" width="110" height="50" as="geometry" />
        </mxCell>
        <mxCell id="20" value="" style="endArrow=open;strokeColor=#FF0000;endFill=1;rounded=0" parent="1" source="10" edge="1">
          <mxGeometry relative="1" as="geometry">
            <mxPoint x="630" y="650" as="targetPoint" />
          </mxGeometry>
        </mxCell>
      </root>
    </mxGraphModel>
  </diagram>
</mxfile>
